# xmcd
#
# Track frame offsets: 
#        150
#        18096
#        43689
#        53135
#        61094
#        87913
#        93977
#        100293
#        121607
#        141967
#        148165
#        166317
#        193743
#        222681
#        238216
#        245559
#        258550
#
# Disc length: 3694 seconds
#
# Revision: 0
# Processed by: cddbd v1.5.2PL0 Copyright (c) Steve Scherf et al.
# Submitted via: ExactAudioCopy v1.0b2
#
DISCID=f70e6c11
DTITLE=Various Artist - MNW: Ljud Fran Waxholm 1969-2009 {Book With 4-CD} - C
DTITLE=D 4: Folk and Instr.
DYEAR=2009
DGENRE=Folk
TTITLE0=EGBA - Elefantminne
TTITLE1=Greg Fitzpatrick - Andra Satsen
TTITLE2=Nynningen - Marschen Till Caobans Rike
TTITLE3=Nationalteatern - Världen Ar Kall
TTITLE4=Arbete and Fritid - Vägen Till Nyvla
TTITLE5=Wille Toors - Polska Efter Lejsme Per Larsson
TTITLE6=Styrbjörn Bergelt - Vest-Agder
TTITLE7=Anita Livstrand - Mageiskt Samtal
TTITLE8=Nya Ljudbolaget - Immigrantlament
TTITLE9=Norrlåtar - Ko Over Sarek
TTITLE10=Contact - Nobody Wants To Be Sixteen
TTITLE11=Archimedes Badkar - Afro 70 - Kila Mtu
TTITLE12=Per Cussion - Liberation Song
TTITLE13=Spjärnsvallet - Haga
TTITLE14=Södra Bergens Balalajkor - Skomorosina
TTITLE15=Atacama - Arriba Quemando El Sol
TTITLE16=Johan Zachrisson - Danca Da Serra
EXTD=
EXTT0=
EXTT1=
EXTT2=
EXTT3=
EXTT4=
EXTT5=
EXTT6=
EXTT7=
EXTT8=
EXTT9=
EXTT10=
EXTT11=
EXTT12=
EXTT13=
EXTT14=
EXTT15=
EXTT16=
PLAYORDER=
